<svg width="17" height="21" viewBox="0 0 17 21" fill="none" xmlns="http://www.w3.org/2000/svg">
<path d="M1.5 20.0625C1.15266 20.06 0.820246 19.921 0.574635 19.6754C0.329024 19.4298 0.189955 19.0973 0.1875 18.75V2.25C0.188266 2.0172 0.250938 1.78879 0.369088 1.5882C0.487238 1.38761 0.656615 1.22206 0.859848 1.10851C1.06308 0.994969 1.29286 0.937524 1.52561 0.942068C1.75837 0.946613 1.98573 1.01298 2.18438 1.13437L15.6844 9.38437C15.8765 9.50036 16.0355 9.66401 16.1458 9.85947C16.2561 10.0549 16.3141 10.2756 16.3141 10.5C16.3141 10.7244 16.2561 10.9451 16.1458 11.1405C16.0355 11.336 15.8765 11.4996 15.6844 11.6156L2.18438 19.8656C1.97875 19.9931 1.74191 20.0612 1.5 20.0625ZM1.5 2.0625C1.46639 2.06034 1.43312 2.07032 1.40625 2.09062C1.37681 2.10518 1.35226 2.12802 1.3356 2.15633C1.31895 2.18464 1.31092 2.21719 1.3125 2.25V18.75C1.31092 18.7828 1.31895 18.8154 1.3356 18.8437C1.35226 18.872 1.37681 18.8948 1.40625 18.9094C1.43475 18.9258 1.46709 18.9345 1.5 18.9345C1.53291 18.9345 1.56525 18.9258 1.59375 18.9094L15.0937 10.6594C15.1234 10.6446 15.1483 10.6218 15.1657 10.5937C15.1831 10.5655 15.1923 10.5331 15.1923 10.5C15.1923 10.4669 15.1831 10.4345 15.1657 10.4063C15.1483 10.3781 15.1234 10.3554 15.0937 10.3406L1.59375 2.09062C1.56574 2.07268 1.53326 2.06293 1.5 2.0625Z" fill="white"/>
</svg>
